<svg version="1.1" id="Capa_1" xmlns="http://www.w3.org/2000/svg" xmlns:xlink="http://www.w3.org/1999/xlink" x="0px" y="0px"
	 viewBox="0 0 297 297" style="enable-background:new 0 0 297 297;" xml:space="preserve">
<g>
	<path d="M210.636,205.697l-37.494,20.363c-3.465,1.879-7.648,1.881-11.114,0l-37.49-20.363L87.04,226.061
		c-3.47,1.881-7.647,1.881-11.119,0L45.65,209.619C53.93,259.143,96.842,297,148.377,297c45.869,0,84.902-29.97,98.782-71.468
		L210.636,205.697z"/>
	<path d="M252.565,192.182c0-5.577-0.233-11.304-0.677-17.127c-1.716,0.948-3.66,1.476-5.639,1.476
		c-3.074,0-6.063-1.247-8.228-3.418c-2.177-2.169-3.411-5.174-3.411-8.246c0-3.078,1.234-6.075,3.411-8.254
		c2.165-2.171,5.153-3.409,8.228-3.409c1.061,0,2.11,0.157,3.124,0.443c-1.381-8.796-3.192-17.688-5.4-26.522l-32.213-19.196
		l-33.196,19.777c-3.668,2.185-8.235,2.185-11.898,0l-33.191-19.777l-33.203,19.779c-3.665,2.182-8.234,2.184-11.897,0
		L57.75,109.461c-2.588,8.279-4.84,16.693-6.727,25.122c1.321,0.576,2.54,1.391,3.57,2.425c2.163,2.17,3.408,5.166,3.408,8.245
		c0,3.064-1.245,6.074-3.408,8.247c-2.042,2.042-4.82,3.252-7.693,3.386c-1.262,8.656-2.092,17.195-2.466,25.48l37.044,20.122
		l37.5-20.365c3.466-1.882,7.648-1.882,11.116,0l37.488,20.365l37.491-20.365c3.468-1.88,7.649-1.882,11.121,0l35.939,19.521
		C252.413,198.528,252.565,195.367,252.565,192.182z M94.572,173.112c-2.161,2.171-5.168,3.418-8.228,3.418
		c-3.062,0-6.068-1.247-8.231-3.418c-2.161-2.169-3.41-5.174-3.41-8.246c0-3.078,1.249-6.086,3.41-8.254
		c2.163-2.171,5.17-3.409,8.231-3.409c3.06,0,6.066,1.238,8.228,3.409c2.164,2.179,3.41,5.176,3.41,8.254
		C97.982,167.939,96.736,170.931,94.572,173.112z M134.55,153.5c-2.161,2.166-5.165,3.415-8.225,3.415
		c-3.073,0-6.064-1.249-8.232-3.415c-2.173-2.173-3.405-5.183-3.405-8.247c0-3.067,1.232-6.075,3.405-8.245
		c2.168-2.181,5.171-3.416,8.232-3.416c3.06,0,6.051,1.235,8.225,3.416c2.166,2.17,3.415,5.178,3.415,8.245
		C137.965,148.317,136.716,151.315,134.55,153.5z M174.519,173.112c-2.167,2.171-5.156,3.418-8.228,3.418
		c-3.06,0-6.064-1.247-8.229-3.418c-2.166-2.182-3.409-5.174-3.409-8.246c0-3.078,1.243-6.075,3.409-8.254
		c2.165-2.171,5.169-3.409,8.229-3.409c3.061,0,6.061,1.238,8.228,3.409c2.165,2.179,3.411,5.176,3.411,8.254
		C177.931,167.939,176.685,170.931,174.519,173.112z M214.501,153.5c-2.168,2.166-5.168,3.415-8.229,3.415
		c-3.065,0-6.066-1.249-8.229-3.415c-2.165-2.185-3.411-5.183-3.411-8.247c0-3.067,1.246-6.075,3.411-8.245
		c2.163-2.171,5.164-3.416,8.229-3.416c3.061,0,6.061,1.245,8.229,3.416c2.162,2.17,3.408,5.178,3.408,8.245
		C217.909,148.317,216.663,151.315,214.501,153.5z"/>
	<path d="M65.718,87.07l28.604,17.046l33.203-19.782c3.665-2.183,8.23-2.181,11.896,0.002l33.195,19.779l33.195-19.779
		c3.667-2.184,8.23-2.185,11.898,0l15.967,9.514c-4.03-10.813-8.62-21.229-13.699-30.933C199.046,22.931,172.951,0,148.377,0
		c-24.563,0-50.656,22.931-71.583,62.917C72.784,70.574,69.081,78.684,65.718,87.07z"/>
</g>
</svg>