<svg xmlns="http://www.w3.org/2000/svg" xmlns:xlink="http://www.w3.org/1999/xlink" xmlns:sketch="http://www.bohemiancoding.com/sketch/ns" viewBox="0 0 30 37.5" version="1.1" x="0px" y="0px">
	<title>Abandoned-Search</title>
	<desc>Created with Sketch.</desc>
	<g stroke="none" stroke-width="1" fill="none" fill-rule="evenodd" sketch:type="MSPage">
		<g sketch:type="MSLayerGroup" fill="#000000">
			<g sketch:type="MSShapeGroup">
				<path d="M17.9746598,19.3501437 L17.9547432,19.3689873 L28.2907791,29.7050232 C28.6813034,30.0955475 29.3144684,30.0955475 29.7049927,29.7050232 C30.095517,29.3144989 30.095517,28.6813339 29.7049927,28.2908096 C29.7049927,28.2908096 19.5424265,18.0470756 19.4049716,17.9085228 C20.9638264,16.0167389 21.9,13.592697 21.9,10.95 C21.9,4.90248199 16.997518,0 10.95,0 C4.90248199,0 0,4.90248199 0,10.95 C0,16.997518 4.90248199,21.9 10.95,21.9 C13.6235683,21.9 16.0733431,20.9418263 17.9746598,19.3501437 L17.9746598,19.3501437 Z M2,11 C2,6.02943725 6.02943725,2 11,2 C15.9705628,2 20,6.02943725 20,11 C20,15.9705628 15.9705628,20 11,20 C6.02943725,20 2,15.9705628 2,11 Z"/>
			</g>
		</g>
	</g>
	<!-- <text x="0" y="45" fill="#000000" font-size="5px" font-weight="bold" font-family="'Helvetica Neue', Helvetica, Arial-Unicode, Arial, Sans-serif">Created by Connie Chau</text> -->
	<!-- <text x="0" y="50" fill="#000000" font-size="5px" font-weight="bold" font-family="'Helvetica Neue', Helvetica, Arial-Unicode, Arial, Sans-serif">from the Noun Project</text> -->
</svg>